<svg xmlns="http://www.w3.org/2000/svg" width="179.031" height="108.006" viewBox="0 0 179.031 108.006"><defs><style>.a,.b{fill:#fff}.a,.c,.d,.e,.f,.g,.h,.i,.j,.k,.l,.m,.n,.o,.p{fill-rule:evenodd}.c{fill:#cc632d}.d{fill:#83227a}.e{fill:#e5007d}.f{fill:#636aaf}.g{fill:#4c1256}.h{fill:#b61f29}.i{fill:#e30613}.j{fill:#ec6608}.k{fill:#52ae32}.l{fill:#608d33}.m{fill:#006991}.n{fill:#009cb4}.o{fill:#fbbb21}.p{fill:#e28f2a}</style></defs><path class="a" d="M43.23 73.018h-4.31l-.011 12.309-4.678 3.473V73.018l-4.226-.006.011 17.706h3.864l5.029-3.694v3.694h4.322zM54.48 73.018h-4.3v17.7h9.073v-1.18H54.48zM23.086 90.718h-4.35l-.011-19.058-4.678 3.434v15.624h-4.2V71.63l-4.672 3.464v15.624H.815V69.13h4.36v3.931l5.306-3.937 3.564.006v3.971l5.368-3.977h3.677z"/><path class="b" d="M77.034 73.018h4.305v17.7h-4.305z"/><path class="a" d="M59.096 73.012l14.091.006V74.2h-4.893v16.518h-4.31l.011-16.518h-4.9zM88.291 72c0-1.793 1.974-2.874 4.011-2.874h6.63v3.892H97.24v-2.365h-4.656V89.19s1.041-.006 2.031 0a2.56 2.56 0 0 0 2.619-2.274s-.006-1.233 0-1.228l1.691.017v1.221c0 2-2.059 3.8-4.3 3.8H88.28V72zM103.7 73.018h4.3v7.891l4.673-3.524.017-4.367h4.344v17.7h-4.344v-11.6l-4.689 3.462v8.14h-4.3z"/><path class="b" d="M144.124 73.018h4.299v17.7h-4.299z"/><path class="a" d="M159.64 74.2v15.336l1.25-.006c1.261.006 2.257-.758 2.257-1.714v-1.448h1.533v1.448c.006 1.714-1.838 2.9-3.813 2.9h-5.526v-15.52c0-1.244 1.731-2.184 2.71-2.184h6.63v3.343h-1.533v-2.161h-3.507zM169.941 73.018h9.09V74.2h-4.786v5.77h3.813v1.168h-3.813v8.4h4.786v1.182h-9.09zM128.195 74.2h4.689v15.336h-4.689zm5.991-1.188h-7.229c-1.618 0-3 .984-3 2.246v13.158c0 1.126 1.2 2.308 3 2.308h7.371c1.307 0 2.862-1.08 2.862-2.319V75.263c0-1.2-1.386-2.251-3-2.251"/><path class="c" d="M89.02 0L75.936 13.859 89.02 64z"/><path class="d" d="M24.522 13.718l2.144 16.35 59.888 34.071z"/><path class="e" d="M86.554 64.137l-40-43.766-22.032-6.653z"/><path class="f" d="M84.45 64.374L23.278 31.316 0 31.876z"/><path class="g" d="M0 31.876l5.815 12.332L84.45 64.374z"/><path class="h" d="M55.566 3.468L50.3 19.256l37.612 44.782z"/><path class="i" d="M87.911 64.038L71.767 14.414 55.566 3.468z"/><path class="j" d="M89.015 0l12.965 13.859L89.015 64z"/><path class="k" d="M153.106 13.718l-1.935 16.35-59.656 34.069z"/><path class="l" d="M91.515 64.137l39.564-43.769 22.027-6.652z"/><path class="m" d="M93.62 64.374l61.444-33.058 23.572.413z"/><path class="n" d="M178.636 31.729l-6.116 12.479-78.9 20.166z"/><path class="o" d="M121.938 3.468l5.119 15.788-36.899 44.782z"/><path class="p" d="M90.158 64.038l16.111-49.621 15.669-10.949z"/><path class="a" d="M31.774 99.186v8.706h3.106v-1.007h-1.952v-2.953h1.742v-1.007h-1.742v-2.738h1.952v-1zM40.728 101.205l.028-.023 2.031 6.709h1.069v-8.705h-1.147v3.106l.272 3.485-.023.023-2.03-6.614h-1.11v8.706h1.154v-3.2l-.175-2.919zM50.459 103.046v-2.879h.186c.877-.023.979.667.979 1.5 0 .882-.3 1.431-1.165 1.38m-1.154 4.848h1.154v-4.26h.017l1.573 4.26h1.2l-1.6-4.237c.956-.175 1.2-1.42 1.2-2.24 0-2.184-1.318-2.229-2.161-2.229h-1.383zM68.113 99.322a1.785 1.785 0 0 0-1.007-.255c-2.365 0-2.585 2.868-2.585 4.61 0 1.822.317 4.327 2.67 4.327a1.633 1.633 0 0 0 .928-.243v-1.013a1.471 1.471 0 0 1-.7.17c-1.578 0-1.674-2.172-1.674-3.321 0-1.092.011-3.445 1.629-3.445a1.636 1.636 0 0 1 .741.221v-1.052zM73.04 99.186v8.706h1.154v-4.31h1.742v4.31h1.154v-8.706h-1.154v3.394h-1.742v-3.394zM90.045 101.205l.023-.023 2.036 6.709h1.075v-8.705h-1.154v3.106l.277 3.485-.028.023-2.025-6.613H89.14v8.706h1.148v-3.2l-.175-2.919zM100.668 103.293v1.007h.967v.475c0 2.076-.52 2.144-1 2.144-.509 0-1.018-.345-1.018-3.371 0-2.1.068-3.394 1.018-3.394.713 0 .877.566 1 1.143l1.1-.447a2 2 0 0 0-2.127-1.782c-2.008 0-2.2 2.053-2.2 4.491 0 2.461.243 4.446 2.308 4.446 2.319 0 2.076-2.908 2.076-4.571v-.141zM114.375 99.186v8.706h3.1v-1.007h-1.946v-7.7zM123.324 107.926v-8.74h-1.154v8.706zM83.788 107.926v-8.74H82.64v8.706zM58.991 107.926v-8.74h-1.15v8.706zM128.211 99.186l1.686 8.706h.922l1.708-8.706h-1.1l-.526 3.072-.464 2.93-.057.543h-.028l-.99-6.545zM137.341 99.186v8.706h3.1v-1.007h-1.946v-2.953h1.742v-1.007h-1.742v-2.738h1.946v-1zM148.065 99.356a2.379 2.379 0 0 0-1.222-.288 1.968 1.968 0 0 0-1.952 2.229c0 2.285 2.438 2.63 2.438 4.361 0 .651-.3 1.216-1.018 1.216a1.916 1.916 0 0 1-1.143-.453v1.165a2.025 2.025 0 0 0 1.273.419 2.089 2.089 0 0 0 2.042-2.274 3.227 3.227 0 0 0-1.239-2.551l-.877-.956a1.406 1.406 0 0 1-.328-.945 1.048 1.048 0 0 1 1.03-1.12 1.579 1.579 0 0 1 .979.373z"/></svg>